<?xml version="1.0" encoding="utf-8"?>
<!-- Generator: Adobe Illustrator 24.1.1, SVG Export Plug-In . SVG Version: 6.00 Build 0)  -->
<svg version="1.1" id="Layer_1" xmlns="http://www.w3.org/2000/svg" xmlns:xlink="http://www.w3.org/1999/xlink" x="0px" y="0px"
	 viewBox="0 0 512 512" style="enable-background:new 0 0 512 512; fill: white" xml:space="preserve">
<g>
	<path d="M490.7,226.6c-0.9-8.6-2.2-18.6-5-29.5c-2.7-10.9-7.2-22.7-13.2-35.4c-6.4-12.3-14.1-25.5-24.6-37.7
		c-4.1-5-8.6-9.5-13.2-14.5c7.2-28.7-8.7-53.7-8.7-53.7c-27.7-1.7-44.9,8.7-51.3,13.2l-3.2-1.4c-4.5-1.7-9.5-3.6-14.5-5.4
		c-5-1.4-10-3.2-15-4.1c-5-1.4-10.4-2.3-15.9-3.2l-2.8-0.4C311.7,16.3,277.2,0,277.2,0c-39.5,25.4-47.2,59.5-47.2,59.5l-0.4,1.8
		c-2.2,0.4-4.1,1.3-6.3,1.8c-2.7,0.9-5.9,1.8-8.7,3.2c-2.7,1.3-5.9,2.3-8.7,3.6c-5.9,2.7-11.3,5.5-17.2,8.7
		c-5.4,3.1-10.8,6.4-15.8,10l-1.4-0.9c-53.2-20.4-100.4,4.1-100.4,4.1c-4.1,56.8,21.4,92.2,26.4,98.6c-1.4,3.7-2.3,6.8-3.7,10.5
		c-4.1,12.8-6.9,26.1-8.7,39.5c-0.4,1.8-0.4,4.1-0.9,5.9c-49,24.1-63.6,74.1-63.6,74.1c40.9,47.2,89.1,49.9,89.1,49.9
		c6,10.9,13,21.2,20.9,30.9c3.2,4.1,6.8,7.7,10.4,11.8c-15,42.7,2.2,78.6,2.2,78.6c45.9,1.8,75.9-20,82.2-25l13.6,4.1
		c14.1,3.7,28.7,5.9,42.7,6.4h18.6c21.4,30.8,59.6,35,59.6,35c26.7-28.7,28.6-56.4,28.6-62.7v-2.7c5.5-4.1,10.9-8.2,16.4-12.7
		c10.8-9.6,19.9-20.9,28.2-32.8l2.3-3.2c30.4,1.8,51.7-19.1,51.7-19.1c-5-31.7-23.2-47.2-26.7-49.9l-0.9-0.9l-0.4-0.5
		c0-1.7,0.4-3.6,0.4-5.9c0.4-3.6,0.4-6.7,0.4-10.4V298l-0.4-2.7l-0.9-5.4c-0.4-3.7-1.3-6.8-1.8-10.5c-3.2-13.4-8.3-26.3-15.4-38.2
		c-7.2-11.5-15.8-21.8-25.9-30.9c-9.7-8.6-20.7-15.7-32.7-20.8c-11.3-5.3-23.5-8.7-35.9-10.1c-5.9-0.9-12.3-0.9-18.2-0.9h-9.1
		c-3.2,0.5-6.3,0.9-9.1,1.4c-12.3,2.2-23.7,6.8-33.7,12.7c-10,5.9-18.6,13.7-25.8,22.2c-7.1,8.3-12.7,17.6-16.4,27.7
		c-3.6,9.5-5.9,20-6.3,29.5V283l0.4,3.7c1.4,14,6.6,27.3,15,38.6c5.5,7.2,11.3,12.7,18.2,17.2c6.8,4.6,13.7,7.7,20.9,10
		c7.3,2.3,14.1,3.2,20.4,2.8h9.6l2.3-0.4l2.2-0.5l4.5-1.3c2.7-0.9,5.5-2.3,8.3-3.2c2.7-1.4,4.9-2.7,6.7-4.2l1.8-1.3
		c2.3-1.7,2.7-5,0.9-7.2c-1.8-1.7-4.5-2.3-6.8-1.4l-1.7,0.9c-1.9,1-3.9,1.7-5.9,2.3c-2.3,0.4-4.6,1.3-6.8,1.7l-3.7,0.5h-7.7h-1.8
		l-1.8-0.5c-5-0.9-10.4-2.3-15.4-4.5c-5-2.3-10-5.5-14.1-9.6c-4.6-4.1-8.2-8.6-11.3-14.1c-3.2-5.4-5-11.3-5.9-17.2
		c-0.5-3.2-0.9-6.3-0.5-9.5V283v-2.3c0-1.8,0.5-3.2,0.9-5c2.4-14.1,9.2-27,19.6-36.8c2.7-2.8,5.4-5,8.7-6.8c3.2-2.3,6.3-4.2,9.5-5.5
		c3.2-1.3,6.8-2.7,10.4-3.7c3.7-0.9,7.3-1.7,10.9-1.7c1.8,0,3.7-0.5,5.5-0.5h3.6h1.8c12.2,1,23.9,4.6,34.6,10.5
		c14.5,8.2,26.7,20.4,34,35.4c3.7,7.2,6.4,15.4,7.7,24.1c0.4,2.3,0.4,4.1,0.9,6.3v11.8c0,2.2-0.4,4.6-0.4,6.8
		c-0.5,2.3-0.5,4.5-0.9,6.7l-1.4,6.8c-0.4,2.3-2.7,8.7-4.1,13.2c-1.3,4.6-7.7,16.8-13.2,24.1c-11,15.2-25.7,27.2-42.7,35
		c-8.6,3.7-17.2,6.8-26.3,8.2c-4.5,0.9-9,1.4-13.6,1.4h-6.8H294c-2.3,0-5,0-7.3-0.5c-10-0.9-19.5-2.7-29.1-5.4
		c-9.5-2.8-18.6-6.4-27.2-10.9c-17.2-9.3-32.6-22-44.9-37.2c-5.9-7.7-11.4-15.9-15.9-24.5c-4.6-8.7-7.7-17.7-10.5-26.8
		c-2.6-9.2-4.2-18.6-4.5-28.2v-14.1c0-4.5,0.4-9.5,1.3-14.5c0.5-5,1.4-9.6,2.2-14.6c0.9-4.9,2.3-9.5,3.7-14.5s5.9-18.6,10-27.2
		c8.2-17.2,18.7-32.7,30.9-45c3.2-3.2,6.3-5.9,10-8.6c1.3-1.4,4.5-4.2,8.2-6.4c3.6-2.3,7.2-4.5,11.3-6.3c1.8-0.9,3.7-1.8,5.9-2.7
		l3.2-1.3l3.2-1.4c4.1-1.7,8.2-3.2,12.3-4.5l3.2-0.9l3.2-0.9c0.9-0.5,4.1-0.9,6.3-1.8l3.2-0.9l3.2-0.4l3.2-0.5l3.7-0.9l3.2-0.4
		l3.7-0.4l3.6-0.5l2.3-0.4h3.2l3.7-0.4h1.8h16.7c8.2,0.4,16.4,1.3,24.1,2.7c15.2,2.7,29.9,7.6,43.7,14.6
		c12.8,6.2,24.7,13.9,35.4,23.2l1.8,1.7l1.7,1.8l3.7,3.2l3.7,3.2l3.2,3.7c12.1,12.4,22.3,26.7,30,42.3l0.9,1.8l0.9,1.7l1.7,3.2
		l1.4,3.2l1.3,3.2c1.8,4.1,3.2,8.2,4.6,12.2c2.2,6.3,3.6,11.8,5,16.3c0.5,1.9,2.2,3.2,4.1,3.2c2.3,0,3.6-1.8,3.6-4.2
		c-0.4-5.4-0.4-11.3-0.9-18.2L490.7,226.6z"/>
</g>
</svg>
